#!OML:ASF E:/inclinewalkrobotboard/Project1/Captureday1/Session1/subject1.ASF
:FULLY-SPECIFIED
:DEGREES
126
root 0 0 0 45.02072833399265 -47.133832385822174 -18.511308149480055
lowerback -6.505071188370254 3.6034444130945147 -0.4819229276166011
upperback -13.443598922775397 4.311478810018261 -0.07877583175776559
thorax -11.036650613901799 2.1121559840569883 0.6812150204068732
lowerneck -11.434480875046825 6.758548296306092 4.436721276428227
upperneck 18.19094036393819 7.227458477125005 7.279048874405836
head 7.6403435350799995 4.225072279884799 2.1610518922207733
rclavicle 9.095949905053478E-16 -1.8260130393555725E-15
rhumerus 7.992117650532187 -22.476021685196194 -48.48391052600808
rradius 27.90766768820633
rwrist 21.323383791595177
rhand 0.8601934852573425 7.341395806154198
rfingers 7.125020000000029
rthumb 26.477526193307796 -19.707010450159938
lclavicle 1.4209089068158042E-15 -9.295597836189792E-16
lhumerus -10.493666593986385 3.941742084971815 51.242713403529734
lradius 35.58305715272568
lwrist -7.8813649279413385
lhand -1.7591090713204558 23.341005107647515
lfingers 7.125019999999976
lthumb 23.52101922519551 50.51562057331183
rfemur 59.00868050235557 -82.01440894387062 -56.200049400930894
rtibia 40.21331990109109
rfoot -18.42921984506163 -17.98496891893778
rtoes 21.642695308936144
lfemur -44.80079257868289 8.24327546211351 -27.134200684842334
ltibia 44.06927051426413
lfoot -22.792320628088774 14.938609722465332
ltoes 10.904168589781026
127
root 0 0 0 45.012052141967786 -47.12496580039844 -18.507539233514663
lowerback -6.5027950391173315 3.602708886296771 -0.4822012643199774
upperback -13.441366522856152 4.3105092336769655 -0.078385704698269
thorax -11.035446912651228 2.111720004885916 0.6815806558614528
lowerneck -11.435008079042113 6.756683085290382 4.435492295252351
upperneck 18.191938358758293 7.225207920578885 7.277743113550169
head 7.640811840592506 4.223860867451854 2.1606415791451883
rclavicle 9.111043659914214E-16 -1.8268906718393478E-15
rhumerus 7.972007579052642 -22.47656624706439 -48.48241078435297
rradius 27.91256265542519
rwrist 21.311212615348236
rhand 0.8530155782605942 7.348809753398141
rfingers 7.125020000000029
rthumb 26.470590425304678 -19.700867771505447
lclavicle 1.424031524312468E-15 -9.283405504652967E-16
lhumerus -10.501405267468963 3.9347003841597523 51.26099737412206
lradius 35.587192608322994
lwrist -7.870344015801026
lhand -1.76169900239557 23.33920325605238
lfingers 7.125019999999976
lthumb 23.517679178962524 50.51394521631301
rfemur 58.9714478170019 -81.97327454369255 -56.15941141247916
rtibia 40.2134028372165
rfoot -18.427531061840817 -17.980009555059162
rtoes 21.63825157496087
lfemur -44.7840095707853 8.237273988368417 -27.13133682891301
ltibia 44.06449998701399
lfoot -22.786621815432678 14.930403914581756
ltoes 10.896800535840898
128
root 0 0 0 45.004472415159896 -47.1220021093479 -18.504715299608492
lowerback -6.499424524704626 3.6023515572176668 -0.4825495591232351
upperback -13.439640870879634 4.309841753461965 -0.07863264257069202
thorax -11.035355496455729 2.111427750807012 0.6813965316070922
lowerneck -11.435827753173372 6.756406677477381 4.4351509083615115
upperneck 18.190556061508094 7.224893609780798 7.277324479187952
head 7.640416623455401 4.223683752136349 2.1605436573314245
rclavicle 9.11355376648039E-16 -1.827128242429763E-15
rhumerus 7.955090668176375 -22.475483613634 -48.48834342974591
rradius 27.915326860801386
rwrist 21.301881654174107
rhand 0.8447079926673293 7.356458662188448
rfingers 7.125020000000029
rthumb 26.46261742569122 -19.694511105219064
lclavicle 1.4270065828536865E-15 -9.264339587122875E-16
lhumerus -10.511948219660821 3.9262516162446848 51.28371866976913
lradius 35.591011501994906
lwrist -7.856676601580666
lhand -1.766035549601428 23.33739295198034
lfingers 7.125019999999976
lthumb 23.51244102783474 50.51246855040562
rfemur 58.90978917992549 -81.90555236494922 -56.093171794145746
rtibia 40.21387826939925
rfoot -18.425386587335485 -17.972009618943638
rtoes 21.632726863875412
lfemur -44.76343424738448 8.229990450113515 -27.128429382499387
ltibia 44.05911476614148
lfoot -22.778726014619956 14.920344828773848
ltoes 10.887319229977027
129
root 0 0 0 45.00117685509383 -47.12358643586421 -18.503711182253507
lowerback -6.497099708854112 3.602280354069316 -0.48286275951105445
upperback -13.439235136317066 4.309529841219359 -0.0790180939016576
thorax -11.036116827379715 2.111304782623975 0.6811365946114343
lowerneck -11.436213783564154 6.757170241631817 4.435404216991675
upperneck 18.18831816291354 7.225844015357136 7.277742893653054
head 7.639627847170754 4.224178774146378 2.160707905895923
rclavicle 9.11795670121312E-16 -1.827412785350288E-15
rhumerus 7.941451989697956 -22.474960701090097 -48.49124255145901
rradius 27.917515050432243
rwrist 21.294436432543478
rhand 0.8389636440177011 7.361932820560693
rfingers 7.125020000000029
rthumb 26.457132405324575 -19.68996029151495
lclavicle 1.4301936829455968E-15 -9.247835467029728E-16
lhumerus -10.52028906452031 3.9183467953772895 51.30358347360055
lradius 35.59536978162001
lwrist -7.84422693778837
lhand -1.7686114049091515 23.335575132163676
lfingers 7.125019999999976
lthumb 23.509019659843652 50.51074700806827
rfemur 58.868275490469145 -81.8600926911294 -56.04883062525981
rtibia 40.21416948743942
rfoot -18.42401066700528 -17.966622356934543
rtoes 21.628986190080678
lfemur -44.75022635925359 8.225333672416202 -27.126488041662896
ltibia 44.055640424938275
lfoot -22.773796048747293 14.913910167619854
ltoes 10.88136138472329
130
root 0 0 0 45.03205287834922 -47.14509032719157 -18.515272704781353
lowerback -6.508507565574132 3.6035669701109505 -0.4825571277319073
upperback -13.448308276449511 4.311610727005371 -0.07874589614225824
thorax -11.039770494466394 2.1123561824125034 0.6819231323639643
lowerneck -11.432073614258469 6.761454136602932 4.437969891481334
upperneck 18.18806401842316 7.2309759199349255 7.281964041798979
head 7.638959042129885 4.226942726781572 2.161938084741468
rclavicle 9.084506944233497E-16 -1.8259553576857845E-15
rhumerus 8.004728805972 -22.4751539620424 -48.48367538901276
rradius 27.904715583673575
rwrist 21.328882339431694
rhand 0.866006099802231 7.3361443379460844
rfingers 7.125020000000029
rthumb 26.48273357017672 -19.711532032253054
lclavicle 1.416728076275179E-15 -9.29346445229531E-16
lhumerus -10.48945880861186 3.9469830253151406 51.22820429728476
lradius 35.579054426677914
lwrist -7.88916573073389
lhand -1.7584953253336497 23.342988634723042
lfingers 7.125019999999976
lthumb 23.521743741014244 50.51763910898739
rfemur 59.04423024589387 -82.05978196232155 -56.245174089293656
rtibia 40.21384692710367
rfoot -18.435935114949114 -17.990841835626135
rtoes 21.65304446892941
lfemur -44.819934941821664 8.250820638708163 -27.1361033775235
ltibia 44.07462562719767
lfoot -22.802917396153525 14.949454168358024
ltoes 10.915421466835419
